<?xml version="1.0" encoding="utf-8"?>
<!-- Generator: Adobe Illustrator 14.0.0, SVG Export Plug-In . SVG Version: 6.00 Build 43363)  -->
<!DOCTYPE svg PUBLIC "-//W3C//DTD SVG 1.1//EN" "http://www.w3.org/Graphics/SVG/1.1/DTD/svg11.dtd">
<svg version="1.1" id="Layer_1" xmlns="http://www.w3.org/2000/svg" xmlns:xlink="http://www.w3.org/1999/xlink" x="0px" y="0px"
	 width="245.342px" height="58.344px" viewBox="211.446 243.717 245.342 58.344"
	 enable-background="new 211.446 243.717 245.342 58.344" xml:space="preserve">
<g>
	<path fill="#594C62" d="M236.458,256.719c0.426-1.898,1.441-5.206,3.537-7.171c1.539-1.44,3.012-1.834,4.126-1.834
		c0.818,0,1.67,0.229,2.096,0.655c-0.229,0.688-0.852,2.161-1.343,2.816l-0.491,0.229c-0.262-0.688-0.491-1.67-0.655-2.456
		c-0.065-0.032-0.164-0.065-0.295-0.065c-1.179,0-3.209,0.754-4.846,7.859h3.569l-0.557,0.982l-3.34,0.491
		c-0.786,3.536-1.244,5.763-2.488,10.937c-1.048,4.355-2.063,6.386-4.028,8.187c-1.343,1.179-2.554,1.67-3.667,1.67
		c-1.244,0-2.194-0.753-2.489-1.343l1.179-1.67l0.164-0.065c0.786,1.113,1.768,1.375,2.587,1.375c0.949,0,2.194-0.098,3.536-5.468
		c0.852-3.406,1.539-6.418,3.078-13.655l-2.587-0.557l0.557-0.917H236.458z"/>
	<path fill="#594C62" d="M243.202,257.636c1.179-0.557,3.308-1.31,4.159-1.31l0.065,0.065c0,1.048-0.196,2.947-1.048,6.025h0.131
		c2.685-4.978,4.879-6.091,6.418-6.091c0.524,0,0.917,0.131,1.179,0.36c-0.033,0.491-1.048,3.11-1.539,3.896l-0.524,0.262
		c-0.164-0.688-0.294-1.571-0.458-2.554c-0.065-0.033-0.131-0.033-0.262-0.033c-0.786,0-2.784,1.67-5.108,7.008
		c-0.655,1.474-1.081,2.882-1.932,5.796l-2.227,0.262c1.801-5.632,3.176-11.198,3.274-12.771l-2.39-0.262L243.202,257.636z"/>
	<path fill="#594C62" d="M265.597,267.395c-1.768,2.619-4.257,4.093-6.778,4.093c-2.03,0-4.224-1.016-4.29-4.748
		c-0.065-4.29,3.569-10.413,8.678-10.413c2.063,0,3.176,1.375,3.176,3.11c0,0.754-0.262,1.604-0.786,2.161
		c-1.277,1.539-6.942,2.784-8.481,3.046c-0.164,0.655-0.164,1.113-0.164,1.735c0,1.801,0.72,3.438,2.783,3.438
		c2.227,0,4.552-2.096,5.632-3.472h0.098L265.597,267.395z M262.649,257.375c-2.062,0-4.388,2.619-5.37,6.222
		c1.441-0.295,5.796-1.375,6.517-2.488c0.294-0.426,0.458-1.016,0.458-1.671c0-1.342-0.721-2.062-1.572-2.062L262.649,257.375
		L262.649,257.375z"/>
	<path fill="#594C62" d="M279.576,267.395c-1.768,2.619-4.257,4.093-6.778,4.093c-2.03,0-4.224-1.016-4.29-4.748
		c-0.065-4.29,3.569-10.413,8.678-10.413c2.062,0,3.176,1.375,3.176,3.11c0,0.754-0.262,1.604-0.786,2.161
		c-1.277,1.539-6.942,2.784-8.481,3.046c-0.164,0.655-0.164,1.113-0.164,1.735c0,1.801,0.72,3.438,2.783,3.438
		c2.227,0,4.552-2.096,5.632-3.472h0.098L279.576,267.395z M276.629,257.375c-2.063,0-4.388,2.619-5.371,6.222
		c1.441-0.295,5.796-1.375,6.517-2.488c0.294-0.426,0.458-1.016,0.458-1.671c0-1.342-0.721-2.062-1.572-2.062L276.629,257.375
		L276.629,257.375z"/>
	<path fill="#594C62" d="M303.679,244.976l0.229,0.153c-0.076,0.649,0,1.184,0.458,2.521c0.573,1.565,6.34,16.652,8.211,21.312
		c1.106,0.955,2.062,1.337,3.59,2.062l-0.077,0.152c-1.336-0.038-3.055-0.114-4.354-0.114c-1.336,0-2.636,0.076-3.896,0.114
		l0.038-0.152l1.566-1.299c-0.42-1.299-1.643-4.354-3.246-8.632c-1.452,0.115-3.094,0.268-8.326,0.191
		c-1.642,4.163-2.33,6.072-3.017,8.25l3.323,1.489l-0.077,0.152c-1.107-0.038-2.979-0.114-4.354-0.114
		c-1.222,0-2.444,0.076-3.628,0.114l0.038-0.152l2.75-1.451c1.336-2.75,5.423-12.527,8.593-20.662
		c0.114-0.306,0.114-0.649,0.038-0.955l-0.382-1.107L303.679,244.976z M302.075,249.789c-1.337,3.552-2.635,6.913-3.743,10.121
		c1.107,0,5.919,0.153,7.562,0.153c-1.375-3.819-2.597-7.066-3.743-10.274H302.075z"/>
	<path fill="#594C62" d="M332.284,268.923c1.222,1.299,2.253,1.833,2.864,2.101l-0.038,0.114c-0.268,0.268-0.955,0.42-1.681,0.42
		c-1.184,0-3.247-0.572-3.856-2.215h-0.077c-0.802,0.573-3.132,2.215-4.583,2.215c-3.59,0-7.944-2.711-7.944-8.325
		c0-5.844,4.812-9.167,9.243-9.167c0.382,0,1.719,0.306,3.019,1.261l0.075-0.038c0-2.788-0.038-5.92-0.114-9.281l-2.024-1.031
		l0.076-0.076c0.878-0.344,2.635-0.802,5.156-1.184c-0.077,4.239-0.115,8.287-0.115,12.374V268.923L332.284,268.923z
		 M329.305,256.052c-0.382-0.268-1.604-0.726-2.75-0.726c-3.896,0-6.378,3.59-6.378,7.447c0,3.781,2.444,6.989,6.034,6.989
		c0.764,0,2.062-0.344,3.094-1.031V256.052z"/>
	<path fill="#594C62" d="M345.42,254.066c4.621,0,8.364,3.552,8.364,8.594c0,5.385-3.705,8.898-8.518,8.898
		c-4.086,0-8.325-3.132-8.325-8.517c0-5.614,4.507-8.976,8.44-8.976L345.42,254.066L345.42,254.066z M345.382,254.715
		c-3.628,0-5.042,4.545-5.042,7.906c0,3.819,1.948,8.288,5.385,8.288c3.477,0,4.659-4.393,4.659-7.906
		c0-3.59-1.642-8.288-4.965-8.288H345.382z"/>
	<path fill="#594C62" d="M361.116,256.664h0.077c2.635-1.719,4.163-2.56,5.423-2.56c2.94,0,7.026,2.521,7.026,7.868
		c0,6.722-5.613,9.586-9.204,9.586c-0.497,0-2.102-0.648-3.094-1.222l-0.077,0.038c0,2.024,0.077,5.385,0.153,8.212l3.515,1.413
		l-0.153,0.152c-1.757-0.038-3.438-0.114-5.118-0.114c-1.222,0-2.444,0.076-3.667,0.114l0.076-0.152l2.101-1.299
		c0.039-2.101,0.153-6.417,0.153-11.496v-10.809l-2.024-1.184l0.153-0.153c0.573-0.229,3.705-0.993,4.812-1.107L361.116,256.664z
		 M361.269,269.573c0.649,0.382,1.72,0.688,2.903,0.688c3.208,0,6.226-2.636,6.226-7.677c0-3.399-1.948-6.723-5.424-6.723
		c-0.84,0-2.292,0.383-3.704,1.528L361.269,269.573L361.269,269.573z"/>
	<path fill="#594C62" d="M386.666,254.563l-0.573,0.764l-5.041,0.496c0,2.139,0,6.723,0,12.184c0,0.497,0.382,1.031,0.572,1.223
		c0.421,0.306,0.993,0.572,1.948,0.572c1.299,0,2.33-0.534,2.939-0.954l0.115,0.038l-0.076,0.611
		c-0.803,1.184-2.33,2.062-4.201,2.062c-1.375,0-2.674-0.61-3.438-1.527c-0.649-0.84-0.841-1.681-0.841-4.087v-10.121l-2.444-0.496
		l0.535-0.764h1.947c0.152-0.841,0.61-2.75,1.107-4.163c0.382-0.611,1.489-1.261,1.985-1.261l-0.152,5.424L386.666,254.563
		L386.666,254.563z"/>
	<path fill="#594C62" d="M388.766,255.135c0.611-0.19,2.712-0.84,4.774-1.069v7.639c0,4.201,0.076,6.569,0.152,7.982l2.521,1.337
		l-0.114,0.152c-1.299-0.038-2.635-0.114-4.087-0.114c-1.222,0-2.443,0.076-3.817,0.114l0.075-0.152l2.178-1.337
		c0.076-1.948,0.151-5.079,0.151-8.059v-5.385l-1.946-0.955L388.766,255.135z M392.241,246.123c0.42,0.152,1.261,1.107,1.526,1.757
		l-0.075,0.267c-0.269,0.535-1.185,1.49-1.643,1.719l-0.229,0.115c-0.535-0.344-1.262-1.223-1.527-1.796l0.038-0.229
		c0.458-0.726,1.146-1.489,1.68-1.795L392.241,246.123z"/>
	<path fill="#594C62" d="M406.523,254.066c4.621,0,8.363,3.552,8.363,8.594c0,5.385-3.704,8.898-8.517,8.898
		c-4.087,0-8.326-3.132-8.326-8.517c0-5.614,4.507-8.976,8.44-8.976L406.523,254.066L406.523,254.066z M406.485,254.715
		c-3.628,0-5.041,4.545-5.041,7.906c0,3.819,1.946,8.288,5.385,8.288c3.476,0,4.66-4.393,4.66-7.906c0-3.59-1.644-8.288-4.966-8.288
		H406.485z"/>
	<path fill="#594C62" d="M419.737,256.548l-1.91-0.954l0.076-0.191c0.61-0.268,3.629-1.299,4.773-1.337l-0.152,3.17h0.076
		c2.788-2.329,4.315-3.17,5.958-3.17c3.628,0,4.928,2.979,4.928,5.614v9.396c0,0.497,0.113,0.688,0.458,0.841l2.216,1.107
		l-0.115,0.152c-0.726-0.038-2.788-0.114-4.163-0.114c-0.993,0-2.101,0.076-2.939,0.114l0.075-0.152l1.224-1.299
		c0.151-1.527,0.267-4.621,0.267-9.586c0-3.056-1.795-4.239-3.666-4.239s-3.438,1.451-4.163,2.139c0,3.055,0,11.075,0.19,11.648
		l1.948,1.337l-0.038,0.152c-0.879-0.076-2.444-0.114-3.628-0.114c-1.262,0-2.827,0.076-3.819,0.114l0.076-0.152l2.139-1.299
		c0.152-0.496,0.191-4.431,0.191-9.396L419.737,256.548L419.737,256.548z"/>
	<path fill="#AC2072" d="M211.883,287.682c0.851,0,1.702,0.022,2.553,0.022c0.895,0,1.811-0.022,2.706-0.022l-0.153,0.524
		l-1.593,0.633v5.738c0,3.622,0.065,5.957,0.109,6.328l2.007,0.654l-0.152,0.523c-0.829,0-1.79-0.021-2.924-0.021
		c-1.091,0-2.139,0.021-2.99,0.021l0.153-0.523l1.724-0.654c0.087-0.35,0.131-2.706,0.131-6.328v-5.761l-1.724-0.633
		L211.883,287.682z"/>
	<path fill="#AC2072" d="M223.95,302.083c-0.851,0-1.658-0.021-2.597-0.021c-0.785,0-1.724,0.021-2.509,0.021l0.131-0.523
		l1.79-0.785c0.065-0.938,0.284-4.539,0.393-10.91c-0.873-1.31-1.025-1.222-2.378-1.658l0.196-0.524l2.99-0.108
		c0.065,0.152,0.393,0.698,0.829,1.243c2.88,3.622,5.957,7.157,8.88,10.452h0.066c0-0.981-0.131-8.946-0.131-10.321l-1.854-0.764
		l0.218-0.502c0.807,0,1.527,0.022,2.204,0.022c0.829,0,1.811-0.022,2.662-0.022l-0.131,0.567l-1.854,0.698
		c-0.022,0.982-0.197,7.201-0.24,11.237c0,0.698-0.043,1.702-0.109,2.226l-0.24,0.109c-1.92-1.374-5.782-6.088-10.255-11.674h-0.043
		c-0.022,3.71,0.021,8.99,0.152,9.929l1.986,0.785L223.95,302.083z"/>
	<path fill="#AC2072" d="M236.146,287.661c0.785,0,1.636,0.021,2.444,0.021h5.521c0.24-0.043,1.418-0.262,1.767-0.262l0.065,0.065
		c-0.021,0.437-0.371,2.662-0.501,3.252l-0.393,0.218c-0.371-0.873-0.654-1.658-0.917-2.443l-4.429,0.174v5.805
		c2.051,0,4.32-0.109,5.673-0.284l0.087,0.219c-0.087,0.196-1.069,1.266-1.244,1.266c-0.502,0-3.862-0.24-4.517-0.24
		c0,3.774,0.043,4.822,0.087,5.411l2.422,0.698l-0.175,0.523c-0.873,0-2.029-0.021-3.273-0.021c-0.895,0-1.811,0.021-2.771,0.021
		l0.131-0.502l1.549-0.72c0.065-0.306,0.087-2.27,0.087-6.263v-5.825l-1.811-0.633L236.146,287.661z"/>
	<path fill="#AC2072" d="M255.217,287.29c3.491,0,7.593,2.335,7.659,7.332c0.087,5.498-4.015,7.855-7.593,7.855
		c-3.622,0-7.659-2.357-7.659-7.441c0-5.171,4.233-7.746,7.571-7.746H255.217z M255.086,288.097c-3.295,0-5.171,2.858-5.171,6.59
		c0,3.557,2.138,7.004,5.607,7.004c3.731,0,5.062-3.513,5.062-6.808c0-3.645-2.27-6.786-5.477-6.786H255.086L255.086,288.097z"/>
	<path fill="#AC2072" d="M264.883,287.988c1.004-0.218,3.382-0.437,5.128-0.437c3.578,0,5.346,1.244,5.346,3.666
		c0,2.335-1.854,3.316-3.426,3.841v0.043c0.48,0.808,2.117,3.143,3.338,4.757c1.222,1.615,1.593,2.008,1.855,2.379l-0.153,0.174
		c-1.658-0.108-2.619-0.72-3.513-1.724c-0.938-1.069-2.487-3.163-3.884-5.367l0.065-0.131c2.051-0.546,3.622-1.44,3.622-3.645
		c0-2.728-2.248-3.207-4.779-3.142v6.698c0,2.989-0.021,4.67,0.044,5.761l2.138,0.698l-0.153,0.523
		c-1.047,0-2.051-0.021-3.098-0.021c-0.938,0-1.876,0.021-2.815,0.021l0.153-0.523l1.636-0.677c0.044-0.829,0.153-2.901,0.153-5.76
		v-6.328l-1.854-0.262L264.883,287.988z"/>
	<path fill="#AC2072" d="M279.35,287.705l3.535-0.022c0.044,0.524,0.196,0.852,0.262,1.004c0.437,0.982,2.161,4.43,4.888,10.125
		h0.044c0.567-1.156,3.077-6.132,4.997-10.256c0.087-0.196,0.065-0.414,0.065-0.873l4.037,0.022l-0.175,0.545l-1.854,0.633
		c0.065,2.466,0.436,11.391,0.523,12.023l1.986,0.654l-0.109,0.523c-0.807,0-1.898-0.021-2.836-0.021
		c-0.895,0-1.811,0.021-2.64,0.021l0.174-0.523l1.353-0.654c-0.065-2.706-0.109-7.812-0.175-11.085h-0.065
		c-1.222,2.706-2.989,6.328-5.651,12.438l-0.415,0.044c-1.113-2.487-1.985-4.517-5.28-11.936h-0.044
		c-0.262,3.12-0.589,8.379-0.654,10.474l1.964,0.741l-0.131,0.502c-0.829,0-1.658-0.021-2.596-0.021
		c-0.72,0-1.549,0.021-2.248,0.021l0.109-0.502l1.549-0.72c0.327-1.876,0.895-7.135,1.309-11.478
		c-0.196-0.61-0.349-0.654-2.138-1.135L279.35,287.705z"/>
	<path fill="#AC2072" d="M306.908,287.181l0.131,0.108c-0.022,0.35,0.043,0.742,0.306,1.506c0.306,0.895,2.443,6.328,4.561,11.564
		c0.415,0.546,0.742,0.742,2.204,1.222l-0.153,0.502c-0.808,0-1.724-0.021-2.575-0.021c-0.742,0-1.484,0.021-2.312,0.021
		l0.131-0.458l0.807-0.633c-0.174-0.567-0.785-2.095-1.636-4.211c-0.896,0.065-1.898,0.152-4.866,0.109
		c-0.807,2.072-1.134,2.924-1.483,3.949l1.92,0.741l-0.131,0.502c-0.764,0-1.746-0.021-2.575-0.021
		c-0.764,0-1.484,0.021-2.248,0.021l0.131-0.523l1.527-0.72c0.633-1.288,3.011-6.786,4.779-11.325
		c0.109-0.262,0.131-0.479,0.065-0.676l-0.218-0.59L306.908,287.181z M305.97,290.301c-1.003,2.705-1.571,4.08-2.051,5.477
		c0.611,0,3.229,0.087,4.146,0.087c-0.829-2.226-1.463-3.949-2.051-5.563L305.97,290.301L305.97,290.301z"/>
	<path fill="#AC2072" d="M324.822,287.682c0.458-0.108,1.331-0.262,1.79-0.305l0.043,0.087c-0.043,0.611-0.415,2.597-0.633,3.47
		l-0.35,0.174c-0.196-0.545-0.786-2.269-0.895-2.64l-3.819,0.175v5.411c0,5.607,0.109,6.196,0.131,6.829l2.553,0.677l-0.195,0.523
		c-1.135,0-2.291-0.021-3.426-0.021c-1.179,0-2.336,0.021-3.535,0.021l0.151-0.523l2.313-0.677c0.044-0.741,0.064-1.222,0.064-6.109
		v-6.131l-3.577-0.175c-0.284,0.567-1.048,2.095-1.331,2.531l-0.35,0.108c-0.044-0.807-0.044-2.967,0-3.644l0.065-0.087
		c0.327,0.043,1.244,0.218,1.658,0.305L324.822,287.682L324.822,287.682z"/>
	<path fill="#AC2072" d="M328.509,287.682c0.852,0,1.702,0.022,2.554,0.022c0.895,0,1.811-0.022,2.705-0.022l-0.152,0.524
		l-1.593,0.633v5.738c0,3.622,0.064,5.957,0.108,6.328l2.007,0.654l-0.151,0.523c-0.829,0-1.79-0.021-2.925-0.021
		c-1.091,0-2.139,0.021-2.989,0.021l0.152-0.523l1.725-0.654c0.087-0.35,0.131-2.706,0.131-6.328v-5.761l-1.724-0.633
		L328.509,287.682z"/>
	<path fill="#AC2072" d="M343.413,287.29c3.491,0,7.593,2.335,7.659,7.332c0.087,5.498-4.016,7.855-7.594,7.855
		c-3.621,0-7.658-2.357-7.658-7.441c0-5.171,4.232-7.746,7.57-7.746H343.413z M343.282,288.097c-3.295,0-5.171,2.858-5.171,6.59
		c0,3.557,2.138,7.004,5.606,7.004c3.731,0,5.062-3.513,5.062-6.808c0-3.645-2.271-6.786-5.478-6.786H343.282L343.282,288.097z"/>
	<path fill="#AC2072" d="M357.748,302.083c-0.852,0-1.658-0.021-2.597-0.021c-0.785,0-1.725,0.021-2.51,0.021l0.132-0.523
		l1.79-0.785c0.064-0.938,0.283-4.539,0.393-10.91c-0.873-1.31-1.025-1.222-2.378-1.658l0.196-0.524l2.989-0.108
		c0.065,0.152,0.394,0.698,0.829,1.243c2.88,3.622,5.957,7.157,8.881,10.452h0.065c0-0.981-0.131-8.946-0.131-10.321l-1.854-0.764
		l0.219-0.502c0.807,0,1.526,0.022,2.203,0.022c0.829,0,1.812-0.022,2.662-0.022l-0.131,0.567l-1.854,0.698
		c-0.022,0.982-0.197,7.201-0.24,11.237c0,0.698-0.043,1.702-0.109,2.226l-0.239,0.109c-1.921-1.374-5.782-6.088-10.256-11.674
		h-0.043c-0.021,3.71,0.021,8.99,0.152,9.929l1.986,0.785L357.748,302.083z"/>
	<path fill="#AC2072" d="M375.007,287.879c1.615-0.175,3.382-0.328,4.562-0.328c1.789,0,3.055,0.24,4.124,0.917
		c1.331,0.808,1.789,2.182,1.789,3.36c0,3.469-3.033,4.495-4.758,4.495c-0.371,0-0.633-0.022-0.873-0.109l-0.218-0.546
		c2.531-0.196,3.688-1.658,3.688-3.73c0-2.793-2.052-3.645-4.778-3.558v5.914c0,5.192,0.131,6.196,0.131,6.567l2.4,0.698
		l-0.196,0.523c-1.113,0-2.248-0.021-3.383-0.021c-0.872,0-1.767,0.021-2.64,0.021l0.131-0.502l1.526-0.698
		c0.087-0.436,0.087-1.505,0.087-6.523v-5.543l-1.768-0.437L375.007,287.879z"/>
	<path fill="#AC2072" d="M393.095,287.181l0.131,0.108c-0.021,0.35,0.044,0.742,0.307,1.506c0.306,0.895,2.442,6.328,4.561,11.564
		c0.414,0.546,0.741,0.742,2.203,1.222l-0.152,0.502c-0.808,0-1.724-0.021-2.574-0.021c-0.741,0-1.483,0.021-2.312,0.021
		l0.131-0.458l0.809-0.633c-0.175-0.567-0.786-2.095-1.638-4.211c-0.895,0.065-1.897,0.152-4.865,0.109
		c-0.808,2.072-1.136,2.924-1.483,3.949l1.92,0.741l-0.131,0.502c-0.764,0-1.745-0.021-2.575-0.021
		c-0.764,0-1.482,0.021-2.247,0.021l0.131-0.523l1.527-0.72c0.633-1.288,3.012-6.786,4.778-11.325
		c0.108-0.262,0.132-0.479,0.065-0.676l-0.219-0.59L393.095,287.181z M392.156,290.301c-1.004,2.705-1.571,4.08-2.051,5.477
		c0.609,0,3.229,0.087,4.146,0.087c-0.829-2.226-1.462-3.949-2.051-5.563L392.156,290.301L392.156,290.301z"/>
	<path fill="#AC2072" d="M409.438,287.29c1.396,0,2.619,0.327,3.404,0.829c0.523-0.327,1.179-0.523,1.658-0.633l0.131,0.088
		c-0.087,0.872-0.633,3.076-0.873,3.513l-0.393,0.219c-0.196-0.394-0.589-1.681-0.741-2.423c-0.48-0.327-1.637-0.654-2.75-0.654
		c-4.102,0-6.502,2.858-6.502,6.655c0,3.731,2.531,6.567,6.742,6.567c0.72,0,1.112-0.065,1.439-0.174
		c0.916-0.96,2.007-2.052,2.554-2.466l0.502,0.109c-0.176,0.676-1.2,2.64-1.484,2.858c-0.807,0.37-2.574,0.698-3.774,0.698
		c-4.079,0-8.203-2.27-8.203-7.484c0-5.172,4.537-7.703,8.247-7.703L409.438,287.29L409.438,287.29z"/>
	<path fill="#AC2072" d="M416.727,287.661c0.829,0,1.658,0.021,2.487,0.021c0.916,0,1.833-0.021,2.771-0.021l-0.152,0.502
		l-1.593,0.677v5.738c0,3.622,0.064,5.957,0.108,6.328l2.008,0.654l-0.152,0.523c-0.873,0-1.877-0.021-3.055-0.021
		c-1.025,0-2.073,0.021-2.858,0.021l0.131-0.523l1.745-0.654c0.088-0.371,0.131-2.706,0.131-6.328v-5.761l-1.724-0.676
		L416.727,287.661z M429.884,288.228c-0.61,0.175-1.658,0.415-2.312,0.611c-0.239,0.065-0.502,0.239-0.721,0.437
		c-0.872,0.851-1.877,1.941-4.211,4.669v0.044c1.614,1.92,3.295,3.774,4.865,5.477c1.615,1.768,2.313,2.422,2.642,2.814
		l-0.263,0.109c-2.073-0.087-3.077-0.829-4.124-1.898c-1.156-1.156-3.077-3.229-4.953-5.498v-0.175
		c3.056-3.491,4.387-5.019,5.171-6.219c-0.043-0.262-0.064-0.742-0.043-0.96c1.701-0.088,3.558,0.043,4.232,0.043L429.884,288.228z"
		/>
	<path fill="#AC2072" d="M431.65,287.661c0.895,0,1.811,0.021,2.684,0.021h5.411c0.219-0.065,1.419-0.239,1.812-0.239l0.065,0.065
		c-0.044,0.589-0.415,2.487-0.567,3.164l-0.35,0.196c-0.239-0.524-0.764-1.877-0.938-2.356l-4.43,0.174v5.455
		c2.029,0,4.189-0.131,5.542-0.262l0.088,0.196c-0.088,0.196-1.048,1.266-1.31,1.266c-0.351,0-3.71-0.24-4.32-0.24
		c0,1.44,0,4.124,0.087,5.936l4.626,0.175c0.458-0.611,1.396-2.008,1.898-2.575l0.437-0.021c-0.064,0.698-0.522,2.793-0.764,3.513
		c-1.418-0.065-2.684-0.065-3.949-0.065h-3.448c-0.98,0-2.071,0.021-2.988,0.021l0.175-0.523l1.854-0.633
		c0.065-0.262,0.132-2.684,0.132-6.35v-5.804l-1.898-0.611L431.65,287.661z"/>
	<path fill="#AC2072" d="M454.955,287.682c0.458-0.108,1.331-0.262,1.789-0.305l0.044,0.087c-0.044,0.611-0.415,2.597-0.633,3.47
		l-0.351,0.174c-0.195-0.545-0.785-2.269-0.895-2.64l-3.818,0.175v5.411c0,5.607,0.109,6.196,0.131,6.829l2.555,0.677l-0.197,0.523
		c-1.134,0-2.291-0.021-3.426-0.021c-1.179,0-2.334,0.021-3.534,0.021l0.152-0.523l2.312-0.677c0.043-0.741,0.065-1.222,0.065-6.109
		v-6.131l-3.579-0.175c-0.283,0.567-1.047,2.095-1.331,2.531l-0.35,0.108c-0.044-0.807-0.044-2.967,0-3.644l0.065-0.087
		c0.327,0.043,1.243,0.218,1.658,0.305L454.955,287.682L454.955,287.682z"/>
</g>
</svg>
