<?xml version="1.0" encoding="utf-8"?>
<!-- Generator: Adobe Illustrator 14.0.0, SVG Export Plug-In . SVG Version: 6.00 Build 43363)  -->
<!DOCTYPE svg PUBLIC "-//W3C//DTD SVG 1.1//EN" "http://www.w3.org/Graphics/SVG/1.1/DTD/svg11.dtd">
<svg version="1.1" id="Layer_1" xmlns="http://www.w3.org/2000/svg" xmlns:xlink="http://www.w3.org/1999/xlink" x="0px" y="0px"
	 width="388.44px" height="176.183px" viewBox="0 0 388.44 176.183" enable-background="new 0 0 388.44 176.183"
	 xml:space="preserve">
<g>
	<path fill="#AC2072" d="M36.722,79.169l0.635,0.418c-0.106,1.368,0.103,3.157,1.363,6.843c1.582,4.416,17.996,47.035,23.152,59.449
		c2.734,1.473,5.261,2.631,9.784,4.211l-0.417,1.158c-3.265-0.107-7.581-0.211-10.946-0.211c-3.47,0-6.945,0.104-10.519,0.211
		l0.311-1.053l4.106-3.051c-1.052-3.475-4.417-11.471-9.05-23.467c-4.316,0.314-9.048,0.735-23.359,0.527
		c-4.63,11.571-6.419,16.415-8.419,22.413l9.365,3.473l-0.315,1.158c-3.051-0.107-8.524-0.211-12.312-0.211
		c-3.473,0-6.734,0.104-10.101,0.211l0.21-1.158l7.471-3.369c3.684-7.471,15.047-34.3,23.78-56.925
		c0.422-0.948,0.422-1.894,0.21-2.737l-1.05-2.734L36.722,79.169z M33.462,92.425c-3.473,9.471-7.367,19.151-10.313,27.677
		c2.737,0,16.206,0.418,20.938,0.418c-3.891-10.312-7.154-19.151-10.417-28.095H33.462z"/>
	<path fill="#AC2072" d="M113.842,144.513c3.155,3.68,6.313,5.365,8.206,6.207l-0.418,0.734c-0.74,0.736-2.103,0.947-3.897,0.947
		c-2.415,0-8.31-1.365-10.099-6.209h-0.208c-2.106,1.686-8.525,6.209-12.421,6.209c-9.574,0-22.199-7.051-22.199-23.147
		c0-15.89,13.256-25.149,25.146-25.149c1.055,0,4.947,0.734,8.733,3.472h0.213c0-8.099-0.107-15.68-0.317-25.149l-5.578-2.734
		l0.421-0.845c1.686-0.734,5.474-1.996,12.734-3.258c-0.213,11.994-0.317,22.729-0.317,33.985V144.513z M106.898,110.314
		c-1.475-1.052-5.157-2.424-8.419-2.424c-11.577,0-18.099,10.312-18.099,20.31c0,9.999,6.736,19.258,17.048,19.258
		c2.209,0,6.102-1.053,9.47-3.473V110.314z"/>
	<path fill="#AC2072" d="M148.669,104.105c12.205,0,22.62,9.681,22.62,23.674c0,14.943-10.104,24.623-23.044,24.623
		c-10.734,0-22.623-8.416-22.623-23.464c0-15.993,12.833-24.832,22.94-24.832H148.669z M148.35,106.525
		c-9.995,0-14.625,11.26-14.625,21.571c0,10.629,5.782,21.885,15.679,21.885c10.099,0,13.787-11.049,13.787-21.254
		c0-10.418-5.157-22.202-14.734-22.202H148.35z"/>
	<path fill="#AC2072" d="M188.962,111.366h0.205c7.057-4.841,11.471-7.261,15.158-7.261c8.418,0,19.676,7.05,19.676,21.992
		c0,18.203-15.68,26.304-25.574,26.304c-1.576,0-6.414-2-8.623-3.471l-0.32,0.105c0,6.627,0.213,15.363,0.424,22.623l9.889,3.469
		l-0.629,1.055c-4.738-0.104-9.047-0.211-13.68-0.211c-3.051,0-6.209,0.107-9.365,0.211l0.422-1.154l5.68-3.053
		c0.105-5.682,0.424-16.836,0.424-31.252v-29.99l-5.791-3.051l0.742-0.945c1.574-0.74,9.047-2.736,11.885-3.057L188.962,111.366z
		 M189.483,146.193c2,1.266,5.264,2.316,8.738,2.316c9.365,0,17.988-7.576,17.988-21.147c0-8.419-4.73-18.417-15.256-18.417
		c-2.627,0-6.941,1.158-11.471,4.841V146.193z"/>
	<path fill="#AC2072" d="M257.767,105.474l-1.898,2.524l-13.99,1.265c0,5.472,0,18.1,0,32.829c0,1.578,1.158,3.156,1.787,3.787
		c1.158,0.842,2.635,1.58,5.367,1.58c3.785,0,6.633-1.369,8.314-2.631l0.42,0.211l-0.316,2.207
		c-2.42,3.051-6.102,5.156-11.047,5.156c-3.475,0-6.949-1.682-9.158-4.209c-1.68-2.314-2.311-4.631-2.311-11.363v-27.567
		l-6.949-1.265l1.688-2.524h5.367c0.312-2.526,0.842-6.946,1.895-11.26c1.051-1.996,3.893-3.788,5.367-3.788l-0.424,15.048H257.767z
		"/>
	<path fill="#AC2072" d="M262.603,107.053c1.68-0.634,6.312-2.213,11.885-2.947v20.94c0,11.68,0.105,17.989,0.32,21.782l7.26,3.262
		l-0.525,1.158c-3.156-0.107-7.055-0.318-10.734-0.318c-3.158,0-6.102,0.211-9.994,0.318l0.418-1.158l6.102-3.262
		c0.107-4.844,0.316-13.784,0.316-21.993v-14.311l-5.471-2.526L262.603,107.053z"/>
	<path fill="#AC2072" d="M308.997,104.105c12.205,0,22.623,9.681,22.623,23.674c0,14.943-10.102,24.623-23.047,24.623
		c-10.729,0-22.623-8.416-22.623-23.464c0-15.993,12.842-24.832,22.941-24.832H308.997z M308.681,106.525
		c-9.994,0-14.627,11.26-14.627,21.571c0,10.629,5.791,21.885,15.678,21.885c10.107,0,13.787-11.049,13.787-21.254
		c0-10.418-5.156-22.202-14.73-22.202H308.681z"/>
	<path fill="#AC2072" d="M343.825,111.262l-5.475-2.526l0.316-1.052c1.684-0.631,8.525-3.368,11.994-3.578l-0.416,8.839h0.209
		c8.52-7.26,12.312-8.839,16.832-8.839c10,0,13.576,8.522,13.576,15.783v25.15c0,1.471,0.316,1.893,1.158,2.312l6.42,2.738
		l-0.424,1.158c-1.576-0.107-7.262-0.211-10.939-0.211c-2.529,0-5.369,0.104-7.686,0.211l0.424-1.158l3.469-3.369
		c0.424-3.893,0.635-11.996,0.635-25.36c0-9.153-5.367-12.312-10.629-12.312c-5.678,0-10.734,4.527-12.629,6.63
		c0,7.998,0,29.36,0.424,31.252l5.785,3.158l-0.312,1.158c-2.104-0.107-6.312-0.211-9.471-0.211c-3.369,0-7.471,0.104-10,0.211
		l0.422-1.158l5.893-3.158c0.316-1.473,0.424-11.891,0.424-25.464V111.262z"/>
</g>
<g>
	<linearGradient id="SVGID_1_" gradientUnits="userSpaceOnUse" x1="101.2676" y1="15.4507" x2="198.3893" y2="181.6359">
		<stop  offset="0" style="stop-color:#584B62"/>
		<stop  offset="1" style="stop-color:#AC2072"/>
	</linearGradient>
	<path fill="url(#SVGID_1_)" d="M107.939,34.441c0-6.851-0.075-13.478-0.225-20.623l-4.022-1.637l0.303-0.743
		c2.155-0.818,5.057-1.786,9.006-2.311c-0.15,8.638-0.222,16.529-0.222,23.597c1.933-0.891,6.399-3.42,8.857-3.42
		c7.226,0,15.558,5.137,15.558,16.005c0,12.959-11.089,18.169-18.016,18.169c-1.64,0-5.137-1.34-7.067-2.087
		c-1.495,0.891-3.132,1.715-4.172,1.934V34.441z M112.779,59.83c0.815,0.22,3.123,0.891,5.284,0.891c8.785,0,13.7-7.223,13.7-14.74
		c0-7.442-4.766-13.4-12.288-13.4c-2.23,0-4.84,0.672-6.696,1.715V59.83z"/>
	<linearGradient id="SVGID_2_" gradientUnits="userSpaceOnUse" x1="126.5298" y1="0.6831" x2="223.6539" y2="166.8725">
		<stop  offset="0" style="stop-color:#584B62"/>
		<stop  offset="1" style="stop-color:#AC2072"/>
	</linearGradient>
	<path fill="url(#SVGID_2_)" d="M160.059,42.783c-0.297-8.86-3.275-10.574-7.52-10.574c-1.49,0-3.501,0.593-4.987,1.562
		c-0.075,1.864-0.075,4.471-0.452,7.223l-0.441,0.15c-0.743-0.299-3.645-3.869-4.318-5.808c1.343-1.268,6.03-3.873,8.19-4.763
		c2.009-0.749,3.648-1.268,4.913-1.268c7.073,0,9.453,6.402,9.453,11.539c0,4.69-0.145,11.317-0.145,16.754
		c2.308,3.123,4.912,3.869,6.178,4.244l-0.45,0.668c-0.519,0.297-1.559,0.672-2.826,0.672c-4.99,0-6.701-2.233-7.376-4.244h-0.144
		c-3.351,3.201-6.852,4.541-9.007,4.541c-6.404,0-8.787-5.065-8.787-8.123c0-2.967,1.268-4.978,2.754-5.728
		c2.006-1.417,8.859-3.869,15.04-5.287L160.059,42.783z M147.477,53.95c0,4.688,3.65,6.33,6.108,6.33
		c1.639,0,4.019-0.824,5.728-2.613c0.449-0.597,0.671-0.969,0.671-1.784l0.15-9.827c-3.576,0.893-8.413,2.607-10.274,3.797
		c-1.712,0.896-2.383,1.864-2.383,4.019V53.95z"/>
	<linearGradient id="SVGID_3_" gradientUnits="userSpaceOnUse" x1="151.8877" y1="-14.1362" x2="249.0146" y2="152.0578">
		<stop  offset="0" style="stop-color:#584B62"/>
		<stop  offset="1" style="stop-color:#AC2072"/>
	</linearGradient>
	<path fill="url(#SVGID_3_)" d="M175.849,34.441c0-6.851-0.072-13.478-0.219-20.623l-4.023-1.637l0.296-0.743
		c2.162-0.818,5.064-1.786,9.012-2.311c-0.152,8.638-0.225,16.529-0.225,23.597c1.938-0.891,6.402-3.42,8.859-3.42
		c7.221,0,15.559,5.137,15.559,16.005c0,12.959-11.092,18.169-18.016,18.169c-1.639,0-5.141-1.34-7.076-2.087
		c-1.486,0.891-3.119,1.715-4.168,1.934V34.441z M180.69,59.83c0.818,0.22,3.127,0.891,5.281,0.891
		c8.789,0,13.707-7.223,13.707-14.74c0-7.442-4.771-13.4-12.289-13.4c-2.232,0-4.838,0.672-6.699,1.715V59.83z"/>
	<linearGradient id="SVGID_4_" gradientUnits="userSpaceOnUse" x1="177.3643" y1="-29.0161" x2="274.4836" y2="137.1652">
		<stop  offset="0" style="stop-color:#584B62"/>
		<stop  offset="1" style="stop-color:#AC2072"/>
	</linearGradient>
	<path fill="url(#SVGID_4_)" d="M230.132,30.123c1.26,0,3.498,0.149,5.135,0.149c1.936,0,4.174-0.149,5.512-0.149l-0.301,0.896
		c-1.711,0.815-2.898,1.706-4.094,2.607c-4.168,9.375-8.562,20.992-16.674,40.126c-0.227,1.115-1.049,4.984-1.791,7.521
		c-0.297,0.144-0.668,0.222-1.637,0.222c-1.414,0-3.498-0.824-4.016-1.418c0.518-0.968,3.719-5.434,5.506-7.813
		c0.889-1.712,3.797-7.816,4.986-10.718c-0.596-1.265-6.998-18.688-10.871-27.697c-1.264-1.19-2.525-2.014-4.611-2.904l0.371-0.821
		c2.012,0.149,4.172,0.149,6.326,0.149c1.938,0,3.875,0,5.881-0.149l-0.297,0.821l-2.307,2.155
		c0.598,2.164,3.348,9.684,8.041,21.963h0.146c3.5-8.632,6.705-17.492,8.191-21.963l-3.873-2.081L230.132,30.123z"/>
</g>
<g>
	<path fill="#584B62" d="M246.422,54.97l1.534-0.71c0.024-0.283,0.068-2.008,0.068-4.793v-3.284l-1.603-0.378l0.378-0.71h1.225
		c0-2.099,0.43-3.824,1.564-5.053c0.896-0.993,1.913-1.463,3.092-1.463c0.753,0,1.367,0.232,1.603,0.47
		c-0.283,0.971-0.519,1.609-0.73,2.031l-0.326,0.191c-0.212-0.309-0.5-0.873-0.852-1.819c-0.119-0.022-0.192-0.022-0.282-0.022
		c-1.303,0-2.085,1.342-2.245,3.656c-0.048,0.736-0.094,1.443-0.094,2.009h3.066l-0.422,0.755l-2.645,0.31
		c-0.029,0.448-0.075,1.6-0.075,3.114c0,3.614,0,4.607,0.046,4.938l2.294,0.705l-0.163,0.521c-0.995-0.022-2.085-0.022-3.189-0.022
		c-0.802,0-1.604,0-2.381,0.022L246.422,54.97z"/>
	<path fill="#584B62" d="M258.603,44.765c2.721,0,5.105,2.196,5.105,5.385c0,3.374-2.291,5.572-5.195,5.572
		c-2.482,0-5.197-1.841-5.197-5.312c0-3.662,2.951-5.645,5.265-5.645H258.603z M258.485,45.545c-2.148,0-3.209,2.269-3.209,4.722
		c0,2.267,1.229,4.675,3.422,4.675c2.27,0,3.047-2.476,3.047-4.602c0-2.314-1.111-4.795-3.232-4.795H258.485z"/>
	<path fill="#584B62" d="M265.92,45.523c0.351-0.168,1.77-0.71,2.382-0.758c0.144,0.568,0.239,1.561,0.239,2.411h0.047
		c1.014-1.843,2.479-2.411,3.352-2.411c0.429,0,0.875,0.12,1.112,0.38c-0.102,0.66-0.427,1.841-0.684,2.386l-0.267,0.163
		c-0.208-0.308-0.491-0.828-0.8-1.533c-0.068-0.05-0.187-0.073-0.353-0.073c-0.755,0-1.842,0.99-2.337,2.269v5.925l2.406,0.661
		l-0.121,0.495c-0.796,0-1.933-0.022-3.208-0.022c-0.709,0-1.702,0.022-2.316,0.022l0.146-0.495l1.343-0.683
		c0.096-2.479,0.096-6.401,0.096-7.582l-1.228-0.688L265.92,45.523z"/>
</g>
<g>
	<path fill="#584B62" d="M19.314,46.514h0.045c1.583-1.089,2.575-1.629,3.402-1.629c1.888,0,4.416,1.581,4.416,4.935
		c0,4.084-3.518,5.903-5.741,5.903c-0.353,0-1.438-0.447-1.935-0.78l-0.07,0.028c0,1.485,0.047,3.446,0.094,5.074l2.22,0.778
		l-0.142,0.238c-1.064-0.022-2.031-0.045-3.072-0.045c-0.684,0-1.392,0.023-2.099,0.045l0.095-0.261l1.276-0.688
		c0.022-1.272,0.092-3.776,0.092-7.01V46.37l-1.298-0.685l0.164-0.21c0.356-0.167,2.031-0.618,2.67-0.685L19.314,46.514z
		 M19.432,54.33c0.449,0.282,1.179,0.521,1.96,0.521c2.101,0,4.038-1.704,4.038-4.748c0-1.888-1.063-4.135-3.424-4.135
		c-0.591,0-1.558,0.26-2.574,1.088V54.33z"/>
	<path fill="#584B62" d="M33.052,55.2l-0.119,0.264c-0.804-0.026-1.56-0.048-2.337-0.048c-0.827,0-1.654,0.022-2.434,0.048
		l0.072-0.233l1.535-0.736c0.022-1.111,0.07-2.666,0.07-8.361c0-2.077,0-5.024-0.07-6.188l-1.322-0.562l0.164-0.235
		c0.709-0.26,1.866-0.498,2.832-0.663c-0.044,2.647-0.069,5.03-0.069,7.559c0,4.742,0.025,6.585,0.069,8.451L33.052,55.2z"/>
	<path fill="#584B62" d="M39.852,49.155c-0.096-2.807-1.041-3.35-2.386-3.35c-0.471,0-1.111,0.185-1.582,0.498
		c-0.024,0.591-0.024,1.413-0.141,2.286L35.6,48.64c-0.234-0.095-1.157-1.228-1.369-1.844c0.425-0.4,1.913-1.229,2.598-1.511
		c0.636-0.234,1.156-0.4,1.56-0.4c2.242,0,2.997,2.031,2.997,3.66c0,1.485-0.047,3.589-0.047,5.315
		c0.731,0.991,1.559,1.228,1.96,1.34l-0.143,0.216c-0.165,0.094-0.497,0.215-0.898,0.215c-1.582,0-2.124-0.714-2.337-1.349h-0.046
		c-1.064,1.016-2.172,1.441-2.857,1.441c-2.031,0-2.787-1.603-2.787-2.576c0-0.94,0.401-1.579,0.874-1.816
		c0.638-0.451,2.81-1.228,4.771-1.678L39.852,49.155z M35.859,52.702c0,1.485,1.159,2.008,1.936,2.008
		c0.521,0,1.276-0.26,1.82-0.828c0.141-0.193,0.213-0.305,0.213-0.565l0.047-3.12c-1.134,0.283-2.668,0.826-3.26,1.204
		c-0.542,0.285-0.756,0.59-0.756,1.275V52.702z"/>
	<path fill="#584B62" d="M44.121,50.363c0-3.708,3.023-5.478,5.832-5.478c1.274,0,2.574,0.518,2.857,0.851
		c-0.164,0.686-0.448,1.698-0.801,2.338l-0.146,0.092c-0.211-0.473-0.448-1.371-0.683-2.503c-0.187-0.096-0.496-0.165-1.041-0.165
		c-2.903,0-4.295,2.316-4.295,4.722c0,2.741,1.842,4.652,4.367,4.652c0.237,0,0.519-0.07,0.685-0.139
		c0.944-0.829,1.56-1.254,1.938-1.441l0.071,0.114c-0.19,0.639-1.064,1.727-1.417,1.964c-0.402,0.117-1.488,0.353-2.173,0.353
		c-1.914,0-5.194-1.272-5.194-5.338V50.363z"/>
	<path fill="#584B62" d="M55.73,49.677c-0.022,0.165-0.022,0.33-0.022,0.52c0,2.974,1.841,4.605,4.061,4.605
		c0.306,0,0.518-0.025,0.755-0.118c0.803-0.59,1.392-1.062,1.817-1.301l0.071,0.193c-0.141,0.468-0.826,1.318-1.062,1.511
		c-0.521,0.283-1.82,0.635-2.527,0.635c-2.785,0-4.84-2.078-4.84-5.147c0-3.421,2.453-5.69,5.006-5.69
		c2.052,0,3.753,1.485,3.753,3.825c0,0.333-0.07,0.564-0.235,0.682c-0.236,0.098-1.087,0.286-2.077,0.286H55.73z M60.949,49.042
		c0.046-0.118,0.12-0.477,0.12-0.806c0-1.159-0.686-2.812-2.223-2.812c-2.266,0-3.067,2.672-3.115,3.618H60.949z"/>
	<path fill="#584B62" d="M70.36,46.421l-1.248-0.499l0.096-0.237c0.514-0.188,1.93-0.752,2.688-0.801l-0.09,1.981l0.019,0.028
		c1.536-1.279,2.669-2.009,3.637-2.009c1.203,0,2.293,0.683,2.789,2.009c1.815-1.539,2.761-2.009,3.821-2.009
		c1.793,0,3.119,1.276,3.119,3.444v5.858c0,0.165,0.162,0.33,0.426,0.476l1.228,0.568l-0.025,0.233
		c-0.806-0.026-1.628-0.048-2.459-0.048c-0.632,0-1.34,0.022-1.933,0.048l0.067-0.264l0.996-0.727
		c0.095-0.949,0.168-2.72,0.14-5.341c0-1.178-0.12-3.088-2.311-3.088c-1.015,0-1.961,0.47-2.932,1.438
		c0.072,0.425,0.146,1.183,0.146,2.126v4.909l1.371,0.713l-0.101,0.233c-0.537-0.026-1.366-0.048-2.071-0.048
		c-0.666,0-1.42,0.022-2.014,0.048l0.095-0.264l1.085-0.705c0.05-1.841,0.072-3.992,0.072-5.57c0-1.208-0.285-2.881-2.383-2.881
		c-0.851,0-1.936,0.705-2.694,1.391c0,3.236,0,6.254,0.075,7.083L73.41,55.2l-0.071,0.264c-0.405-0.026-1.278-0.048-2.316-0.048
		c-0.663,0-1.581,0.022-2.079,0.048l0.07-0.264l1.278-0.705c0.045-0.495,0.067-2.714,0.067-4.747V46.421z"/>
	<path fill="#584B62" d="M93.963,45.146c0.405,0,1.113,0.047,1.633,0.047c0.613,0,1.324-0.047,1.747-0.047l-0.09,0.279
		c-0.552,0.261-0.926,0.543-1.301,0.826c-1.321,2.979-2.719,6.661-5.293,12.729c-0.073,0.358-0.331,1.583-0.565,2.386
		c-0.095,0.05-0.213,0.073-0.521,0.073c-0.45,0-1.107-0.26-1.275-0.451c0.168-0.308,1.18-1.724,1.746-2.476
		c0.285-0.546,1.208-2.484,1.583-3.402c-0.185-0.4-2.221-5.925-3.444-8.784c-0.406-0.38-0.806-0.64-1.469-0.923l0.118-0.257
		c0.637,0.047,1.323,0.047,2.009,0.047c0.615,0,1.23,0,1.863-0.047l-0.089,0.257l-0.733,0.686c0.19,0.685,1.058,3.067,2.546,6.966
		h0.05c1.108-2.739,2.126-5.55,2.599-6.966l-1.228-0.663L93.963,45.146z"/>
</g>
<path fill="#AC2072" d="M360.323,33.975c-9.1-4.589-20.846-1.043-29.643,4.625c4.982-10.179,6.65-22.614-2.816-31.001
	c-8.717-7.716-20.916-10.49-31.197-3.89c-30.77,19.756,0.473,65.218-24.174,88.968c-0.723,0.697-0.414,1.173,0.223,1.418
	c0.477,0.276,1.203,0.38,1.924,0.106c0.098-0.038,0.201-0.066,0.303-0.104c0.008-0.002,0.018-0.006,0.025-0.008
	c29.164-10.75,71.617,5.561,92.828-23.332C376.903,58.344,374.2,40.973,360.323,33.975z M367.433,50.081
	c4.15,16.23-11.221,29.08-24.91,33.003c-20.434,5.857-42.369,0.487-62.838,6.209c11.115-13.763,8.01-33.041,7.584-49.861
	c-0.393-15.362,3.502-37.714,25.016-35.611c19.08,1.867,20.311,21.231,14.311,34.949c-0.863,1.936-1.859,3.769-2.979,5.417
	c-0.139,0.202-0.199,0.38-0.201,0.533c-0.133,0.968,2.018,1.031,2.979,0.579c0.186-0.072,0.344-0.156,0.447-0.256
	c1.551-1.501,3.27-2.864,5.094-4.077C344.735,32.649,362.913,32.41,367.433,50.081z"/>
</svg>
